<!-- Generator: Adobe Illustrator 21.0.0, SVG Export Plug-In  -->
<svg version="1.1"
	 xmlns="http://www.w3.org/2000/svg" xmlns:xlink="http://www.w3.org/1999/xlink" xmlns:a="http://ns.adobe.com/AdobeSVGViewerExtensions/3.0/"
	 x="0px" y="0px" width="119.4px" height="119.4px" viewBox="0 0 119.4 119.4" style="enable-background:new 0 0 119.4 119.4;"
	 xml:space="preserve">
<style type="text/css">
	.st0{fill:#36B0FD;}
</style>
<defs>
</defs>
<g>
	<path class="st0" d="M59.7,105.4c-1.2,0-2,0.8-2,2c0,1.2,0.8,2,2,2s2-0.8,2-2C61.7,106.2,60.9,105.4,59.7,105.4z M59.7,95.5
		c-1.2,0-2,0.8-2,2v2c0,1.2,0.8,2,2,2s2-0.8,2-2v-2C61.7,96.3,60.9,95.5,59.7,95.5z M59.7,113.4c-1.2,0-2,0.8-2,2v2c0,1.2,0.8,2,2,2
		s2-0.8,2-2v-2C61.7,114.2,60.9,113.4,59.7,113.4z M71.6,93.5c-1.2,0-2,0.8-2,2v4c0,1.2,0.8,2,2,2c1.2,0,2-0.8,2-2v-4
		C73.6,94.3,72.8,93.5,71.6,93.5z M71.6,105.4c-1.2,0-2,0.8-2,2v6c0,1.2,0.8,2,2,2c1.2,0,2-0.8,2-2v-6
		C73.6,106.2,72.8,105.4,71.6,105.4L71.6,105.4z M47.7,107.4c-1.2,0-2,0.8-2,2v6c0,1.2,0.8,2,2,2s2-0.8,2-2v-6
		C49.7,108.2,48.9,107.4,47.7,107.4z M47.7,93.5c-1.2,0-2,0.8-2,2v6c0,1.2,0.8,2,2,2s2-0.8,2-2v-6C49.7,94.3,48.9,93.5,47.7,93.5
		L47.7,93.5z M43.8,43.8c1.2,0,2-0.8,2-2c-0.1-5.4,4.3-9.9,9.8-9.9c0.1,0,0.1,0,0.2,0c1.2,0,2-0.8,2-2s-0.8-2-2-2
		c-7.6,0-13.9,6.1-13.9,13.8c0,0.1,0,0.1,0,0.2C41.8,43,42.6,43.8,43.8,43.8z M59.7,61.7c-1.2,0-2,0.8-2,2s0.8,2,2,2s2-0.8,2-2
		S60.9,61.7,59.7,61.7z M77.6,59.7c-1.2,0-2,0.8-2,2s0.8,2,2,2c1.2,0,2-0.8,2-2S78.8,59.7,77.6,59.7z M93.5,55.7c-1.2,0-2,0.8-2,2
		s0.8,2,2,2c1.2,0,2-0.8,2-2S94.7,55.7,93.5,55.7z M25.9,55.7c-1.2,0-2,0.8-2,2s0.8,2,2,2s2-0.8,2-2S27.1,55.7,25.9,55.7z
		 M41.8,59.7c-1.2,0-2,0.8-2,2s0.8,2,2,2c1.2,0,2-0.8,2-2S43,59.7,41.8,59.7z"/>
	<path class="st0" d="M119.4,57.7c0-9.2-18.8-13.8-28.3-15.5C88.5,28.6,76.8,18.8,61.7,18v-6h2l2-2V2l-2-2h-8l-2,2v8l2,2h2v6
		c-15.1,0.8-26.9,10.6-29.3,24.3C18.8,44,0,48.5,0,57.7c0,4.9,5.6,8.9,14.2,11.8c6.3,13.1,24.5,22,45.4,22
		c20.8,0,38.9-8.7,45.3-21.9C113.7,66.6,119.4,62.6,119.4,57.7z M57.7,4h4v4h-4V4z M59.7,21.9c15.2,0,26.9,10.2,27.8,24.3l-6,2
		c-14.1,4.8-29.6,4.8-43.8,0l-6-2c0-0.3,0-0.6,0.1-0.9c0-0.3,0.1-0.6,0.1-0.9C33.8,31.2,45.1,21.9,59.7,21.9z M99.5,71.2
		C92.3,81,76.8,87.5,59.7,87.5c-17.3,0-32.6-6.6-39.8-16.3C30.6,74,45,75.6,59.7,75.6S88.7,74,99.5,71.2z M83,70.2l-0.3,0l-0.7,0.1
		c-6.9,0.8-14.5,1.2-22.2,1.2c-4.6,0-9.2-0.2-13.8-0.5C19.7,69.4,4,62.6,4,57.7c0-3.4,7.6-8.4,23.9-11.3v2.8l8.6,3
		c15,5,31.3,5,46.3,0l8.8-3v-2.8c16.3,3.2,23.9,8,23.9,11.3C115.4,62,103.4,67.7,83,70.2L83,70.2z"/>
</g>
</svg>
