<!-- Generator: Adobe Illustrator 21.0.0, SVG Export Plug-In  -->
<svg version="1.1"
	 xmlns="http://www.w3.org/2000/svg" xmlns:xlink="http://www.w3.org/1999/xlink" xmlns:a="http://ns.adobe.com/AdobeSVGViewerExtensions/3.0/"
	 x="0px" y="0px" width="193.8px" height="89.8px" viewBox="0 0 193.8 89.8" style="enable-background:new 0 0 193.8 89.8;"
	 xml:space="preserve">
<style type="text/css">
	.st0{fill:#36B0FD;}
</style>
<defs>
</defs>
<g>
	<path class="st0" d="M54.6,0.1v55.1h8.1l-5.4,18.1h-2.7v9.5l-18.8,6.9V73.4H0V50.2L37.3,0.1H54.6z M18.3,55.3h17.5V32.5L18.3,55.3z
		"/>
	<path class="st0" d="M66.2,25.2c0.3-3.1,0.6-5.6,1.1-7.3c0.5-1.8,1.1-3.3,1.8-4.6c0.7-1.3,1.5-2.6,2.4-3.8c0.8-1.2,2-2.4,3.5-3.7
		c1.5-1.3,3.2-2.4,5.2-3.3c2-0.9,3.9-1.5,5.7-1.7c1.8-0.3,4.5-0.4,8.2-0.6L99.2,0c2.9,0,5.3,0.1,7.3,0.4c2,0.3,3.8,0.8,5.4,1.5
		c1.6,0.7,3.1,1.5,4.4,2.5c1.4,1,2.8,2.3,4.2,3.8c1.4,1.6,2.5,3.1,3.1,4.5c0.7,1.4,1.2,2.8,1.5,4c0.3,1.2,0.6,2.6,0.8,4.3
		c0.2,1.6,0.3,3.2,0.3,4.7V60c0,3.2-0.1,5.7-0.3,7.3s-0.6,3.6-1.3,6.1c-0.7,2.5-1.5,4.5-2.5,5.9c-1,1.4-1.9,2.5-2.8,3.2
		c-0.9,0.7-2,1.5-3.4,2.3s-2.8,1.4-4.3,2c-1.5,0.5-2.9,0.9-4.4,1.2c-1.4,0.3-3.4,0.5-6.1,0.6c-2.6,0.2-4.2,0.3-4.8,0.3
		c-1.7,0-3.9-0.1-6.8-0.4c-2.8-0.3-4.9-0.7-6.1-1c-1.3-0.3-2.7-0.9-4.4-1.7c-1.6-0.8-3.1-1.7-4.3-2.7s-2.5-2.4-3.9-4.1
		c-1.3-1.7-2.3-3.8-3-6.2c-0.7-2.5-1.1-4.6-1.3-6.5c-0.2-1.9-0.4-3.9-0.4-6V25.2z M85.1,53.5c0,2.5,0.1,4.7,0.4,6.7s0.9,3.7,2,5.1
		c1.1,1.4,2.3,2.5,3.7,3.2c1.4,0.7,3.5,1.1,6.2,1.1h0.8c1.8,0,3.4-0.5,4.9-1.4s2.5-2,3-3.1c0.5-1.1,0.9-3.1,1.1-5.9
		c0.2-2.8,0.4-4.5,0.4-5.2V32c0-2.1-0.2-4.3-0.7-6.6c-0.5-2.3-1.1-3.8-1.8-4.5c-0.7-0.7-1.7-1.4-3.2-2c-1.4-0.6-3.2-0.9-5.1-1
		l-2.8-0.1c-0.9,0-2.1,0.3-3.4,0.9c-1.3,0.6-2.2,1.2-2.8,1.8c-0.6,0.6-1.1,1.6-1.8,2.8c-0.6,1.3-0.9,3.8-0.9,7.4V53.5z"/>
	<path class="st0" d="M185.8,0.1v55.1h8.1l-5.4,18.1h-2.7v9.5L167,89.8V73.4h-35.9V50.2l37.3-50.1H185.8z M149.4,55.3H167V32.5
		L149.4,55.3z"/>
</g>
</svg>
